<svg xmlns="http://www.w3.org/2000/svg" version="1.1" xmlns:xlink="http://www.w3.org/1999/xlink" xmlns:svgjs="http://svgjs.com/svgjs" width="30" height="30" x="0" y="0" viewBox="0 0 24 24" style="enable-background:new 0 0 512 512" xml:space="preserve"><g><path d="M22 5.734V2a1 1 0 1 0-2 0v2.366L14.797.855a5.002 5.002 0 0 0-5.594 0L2.204 5.577A5.002 5.002 0 0 0 0 9.723v9.276a5 5 0 0 0 5 5h3.174a1.5 1.5 0 0 0 1.399-.959l1.564-4.041H8.382a1.368 1.368 0 0 1-1.147-2.114l4.952-7.361a1.163 1.163 0 0 1 2.087.978l-1.369 4.497h2.87c.843 0 1.435.831 1.16 1.628l-2.032 6.054a1 1 0 0 0 .948 1.318h3.15a5 5 0 0 0 5-5V9.723a4.996 4.996 0 0 0-2-3.989Z" fill="#f2921d" data-original="#000000"></path></g></svg>