<?xml version="1.0" standalone="no"?>
<!DOCTYPE svg PUBLIC "-//W3C//DTD SVG 20010904//EN"
 "http://www.w3.org/TR/2001/REC-SVG-20010904/DTD/svg10.dtd">
<svg version="1.0" xmlns="http://www.w3.org/2000/svg"
 width="450pt" height="450pt" viewBox="0 0 512.000000 512.000000"
 preserveAspectRatio="xMidYMid meet">

<g transform="translate(0.000000,512.000000) scale(0.100000,-0.100000)"
fill="#0" stroke="none">
<path d="M1525 4979 c-19 -6 -123 -97 -285 -249 l-255 -240 -183 0 c-207 0
-233 -6 -280 -68 -27 -35 -27 -37 -30 -218 l-3 -183 -235 -222 c-129 -122
-239 -230 -244 -240 -27 -50 2 -110 65 -135 46 -17 46 -17 61 -90 7 -38 38
-65 89 -78 45 -11 51 -16 63 -52 29 -86 100 -111 169 -58 l33 25 0 -1466 0
-1467 34 -34 c28 -28 41 -34 78 -34 39 0 54 8 166 95 67 52 125 95 128 95 3 0
68 -50 145 -110 193 -151 182 -152 399 19 63 50 118 91 121 91 4 0 52 -36 107
-79 169 -134 180 -141 228 -141 45 0 43 -2 224 140 47 37 91 70 98 74 7 5 65
-34 155 -103 192 -150 182 -150 375 0 90 70 147 107 154 103 7 -4 73 -54 146
-111 123 -95 137 -103 178 -103 45 0 52 4 276 178 41 32 61 42 70 35 7 -6 65
-51 128 -100 139 -108 148 -113 198 -113 36 0 56 12 181 110 78 61 144 110
147 110 3 0 60 -43 127 -95 111 -87 126 -95 166 -95 36 0 49 6 77 34 l34 34 0
255 0 256 -26 20 c-15 12 -33 21 -40 21 -22 0 -63 -22 -71 -39 -4 -9 -10 -100
-13 -203 l-5 -187 -104 79 c-147 113 -146 113 -331 -31 -78 -61 -147 -108
-154 -106 -6 2 -65 47 -132 99 -139 110 -152 118 -194 118 -42 0 -55 -8 -186
-110 -61 -49 -120 -94 -131 -101 -19 -11 -32 -4 -134 77 -164 129 -172 134
-216 134 -44 0 -45 -1 -206 -127 -65 -51 -122 -93 -126 -93 -5 0 -42 26 -82
58 -199 157 -208 162 -252 162 -38 0 -55 -10 -184 -110 -78 -60 -145 -110
-149 -110 -3 0 -63 44 -133 98 -148 116 -158 122 -205 122 -36 0 -67 -21 -266
-177 -30 -24 -58 -43 -62 -43 -4 0 -70 49 -148 110 -184 144 -184 144 -331 29
l-104 -80 -3 1478 -3 1478 151 145 c131 126 151 149 150 176 0 38 -36 74 -73
74 -28 0 -61 -29 -325 -277 l-119 -112 -24 25 c-12 13 -47 32 -76 40 -45 13
-53 19 -53 39 0 33 -18 76 -42 102 l-20 22 93 89 c52 49 346 326 653 616 l559
527 21 -26 c13 -16 39 -31 70 -38 51 -13 54 -17 71 -90 3 -16 17 -39 30 -52
l25 -22 -352 -333 c-194 -182 -359 -343 -367 -357 -11 -22 -11 -31 2 -59 17
-35 45 -49 82 -40 13 3 160 134 326 291 l303 285 836 0 836 0 102 -95 c82 -76
108 -95 132 -95 40 0 70 31 70 74 0 31 -14 48 -155 182 l-155 147 25 23 c13
12 27 35 30 51 17 73 20 77 71 90 31 7 57 22 70 38 l21 26 644 -607 c354 -334
648 -611 653 -615 6 -5 1 -18 -11 -31 -25 -27 -43 -70 -43 -104 0 -20 -7 -26
-46 -35 -26 -7 -61 -24 -78 -39 l-31 -28 -246 232 c-135 127 -320 302 -412
389 -178 167 -191 175 -241 136 -31 -25 -36 -79 -8 -106 10 -10 169 -161 355
-337 l337 -318 2 -1175 3 -1175 24 -19 c30 -25 72 -24 99 1 l22 21 0 1100 0
1100 33 -25 c69 -53 140 -28 169 58 12 36 18 41 63 52 52 14 82 40 90 80 3 13
7 35 10 48 3 16 17 28 50 40 70 27 96 96 55 148 -10 14 -120 121 -244 237
l-225 212 -3 183 c-3 181 -3 183 -30 218 -47 62 -73 68 -280 68 l-183 0 -255
240 c-163 154 -266 243 -285 249 -58 15 -112 -20 -121 -81 -6 -33 -11 -39 -43
-48 -20 -5 -41 -10 -48 -10 -22 0 -62 -60 -69 -105 -6 -41 -9 -46 -43 -55 -74
-20 -103 -81 -71 -145 11 -22 20 -41 20 -42 0 -2 -297 -3 -660 -3 -363 0 -660
1 -660 3 0 1 9 20 20 42 32 64 3 125 -71 145 -34 9 -37 14 -43 54 -10 62 -37
93 -100 111 -51 15 -54 18 -60 54 -9 60 -64 95 -121 80z m-726 -665 c-13 -14
-54 -53 -91 -86 l-68 -60 0 86 0 86 92 0 91 0 -24 -26z m3681 -60 l0 -86 -67
60 c-38 33 -79 72 -92 86 l-24 26 91 0 92 0 0 -86z"/>
</g>
</svg>
