<svg xmlns="http://www.w3.org/2000/svg" version="1.1" xmlns:xlink="http://www.w3.org/1999/xlink" xmlns:svgjs="http://svgjs.com/svgjs" width="30" height="30" x="0" y="0" viewBox="0 0 24 24" style="enable-background:new 0 0 512 512" xml:space="preserve"><g><circle cx="7" cy="22" r="2" fill="#f2921d" data-original="#000000"></circle><circle cx="17" cy="22" r="2" fill="#f2921d" data-original="#000000"></circle><path d="M22.984 6.018A3.675 3.675 0 0 0 20.364 5H5.654l-.263-2.062A3.328 3.328 0 0 0 2.087 0H1.5A1.5 1.5 0 0 0 0 1.5 1.5 1.5 0 0 0 1.5 3h.587a.331.331 0 0 1 .326.3l1.5 11.759A3.327 3.327 0 0 0 7.217 18h10.122a5.5 5.5 0 0 0 5.3-4.042l1.246-4.531a3.489 3.489 0 0 0-.901-3.409Zm-3.234 7.145A2.508 2.508 0 0 1 17.339 15H7.217a.329.329 0 0 1-.325-.3L6.037 8h14.477a.5.5 0 0 1 .486.632Z" fill="#f2921d" data-original="#000000"></path></g></svg>